<svg xmlns="http://www.w3.org/2000/svg" viewBox="0 0 80.88 86.22"><defs><style>.cls-1{fill:#999;fill-rule:evenodd;}</style></defs><g id="Capa_2" data-name="Capa 2"><g id="Capa_1-2" data-name="Capa 1"><path class="cls-1" d="M40.44,0A31.08,31.08,0,0,0,9.36,31.08V33.9A14.12,14.12,0,0,1,7,41.75L2.38,48.66a14.13,14.13,0,0,0,8,21.46c3,.82,6.09,1.52,9.16,2.09v0a22.11,22.11,0,0,0,20.86,14,22.1,22.1,0,0,0,20.86-14v0c3.07-.57,6.13-1.27,9.16-2.09a14.12,14.12,0,0,0,8-21.46l-4.6-6.91a14.13,14.13,0,0,1-2.38-7.85V31.08A31.08,31.08,0,0,0,40.44,0ZM54,73.33a113.57,113.57,0,0,1-27.08,0,16.78,16.78,0,0,0,27.08,0ZM15.38,31.08a25.06,25.06,0,0,1,50.12,0V33.9a20.17,20.17,0,0,0,3.39,11.19L73.5,52a8.1,8.1,0,0,1-4.61,12.31,108.09,108.09,0,0,1-56.89,0A8.11,8.11,0,0,1,7.38,52L12,45.09A20.17,20.17,0,0,0,15.38,33.9Z"/></g></g></svg>