<svg xmlns="http://www.w3.org/2000/svg" viewBox="0 0 92.82 92.82"><defs><style>.cls-1{fill:#999;}</style></defs><g id="Capa_2" data-name="Capa 2"><g id="Capa_1-2" data-name="Capa 1"><path class="cls-1" d="M59.12,0a119,119,0,0,0-14.4.5C40.83,1,37.56,2.14,35,4.74a15,15,0,0,0-4,8.33,70.32,70.32,0,0,0-.73,11.74,3.24,3.24,0,0,0,6.48,0,64.83,64.83,0,0,1,.62-10.6,8.69,8.69,0,0,1,2.22-4.92c1.19-1.19,2.87-2,6-2.4a115.84,115.84,0,0,1,13.78-.44h4.32a116,116,0,0,1,13.78.44c3.16.43,4.84,1.21,6,2.4s2,2.87,2.4,6a118,118,0,0,1,.44,13.78V63.68a118,118,0,0,1-.44,13.78c-.43,3.17-1.21,4.84-2.4,6s-2.88,2-6,2.4a116,116,0,0,1-13.78.44H59.36a115.84,115.84,0,0,1-13.78-.44c-3.17-.43-4.85-1.21-6-2.4a8.69,8.69,0,0,1-2.22-4.92A64.83,64.83,0,0,1,36.7,68a3.24,3.24,0,0,0-6.48,0A70.32,70.32,0,0,0,31,79.75a15,15,0,0,0,4,8.33c2.6,2.6,5.87,3.71,9.76,4.24a119,119,0,0,0,14.4.5h4.79a119.13,119.13,0,0,0,14.41-.5c3.88-.53,7.16-1.64,9.76-4.24s3.71-5.87,4.23-9.76a116.72,116.72,0,0,0,.51-14.4v-35a116.72,116.72,0,0,0-.51-14.4c-.52-3.89-1.64-7.16-4.23-9.76S82.2,1,78.32.5A119.13,119.13,0,0,0,63.91,0Z"/><path class="cls-1" d="M3.24,43.17a3.24,3.24,0,1,0,0,6.47H54.93L46.46,56.9a3.24,3.24,0,0,0,4.22,4.92l15.11-13a3.23,3.23,0,0,0,0-4.91L50.68,31a3.24,3.24,0,1,0-4.22,4.91l8.47,7.26Z"/></g></g></svg>