<svg xmlns="http://www.w3.org/2000/svg" viewBox="0 0 92.82 92.82"><defs><style>.cls-1,.cls-2{fill:#999;}.cls-2{fill-rule:evenodd;}</style></defs><g id="Capa_2" data-name="Capa 2"><g id="Capa_1-2" data-name="Capa 1"><path class="cls-1" d="M33.46,46.41a4.32,4.32,0,1,1-4.32-4.32A4.32,4.32,0,0,1,33.46,46.41Z"/><path class="cls-1" d="M50.73,46.41a4.32,4.32,0,1,1-4.32-4.32A4.33,4.33,0,0,1,50.73,46.41Z"/><path class="cls-1" d="M68,46.41a4.32,4.32,0,1,1-4.32-4.32A4.33,4.33,0,0,1,68,46.41Z"/><path class="cls-2" d="M92.82,46.41a46.41,46.41,0,1,0-88,20.67,3.74,3.74,0,0,1,.35,2.67L2.62,79.36A8.85,8.85,0,0,0,13.46,90.2l9.61-2.57a3.74,3.74,0,0,1,2.67.35A46.44,46.44,0,0,0,92.82,46.41ZM46.41,6.48a39.93,39.93,0,1,1-17.78,75.7,10.32,10.32,0,0,0-7.24-.81l-9.61,2.57A2.36,2.36,0,0,1,8.88,81l2.57-9.61a10.32,10.32,0,0,0-.81-7.24A40,40,0,0,1,46.41,6.48Z"/></g></g></svg>