<svg xmlns="http://www.w3.org/2000/svg" viewBox="0 0 90.2 90.2"><defs><style>.cls-1{fill:#999;fill-rule:evenodd;}</style></defs><g id="Capa_2" data-name="Capa 2"><g id="Capa_1-2" data-name="Capa 1"><path class="cls-1" d="M16.78,19.93A19.93,19.93,0,1,1,36.71,39.86,19.93,19.93,0,0,1,16.78,19.93ZM36.71,6.29A13.64,13.64,0,1,0,50.34,19.93,13.64,13.64,0,0,0,36.71,6.29Z"/><path class="cls-1" d="M11.43,52.08c6.63-3.73,15.57-5.93,25.28-5.93S55.36,48.35,62,52.08s11.44,9.24,11.44,16.09v.43c0,4.88,0,11-5.36,15.36-2.64,2.15-6.33,3.68-11.32,4.69a103.16,103.16,0,0,1-20,1.55,103.16,103.16,0,0,1-20-1.55c-5-1-8.68-2.54-11.32-4.69C0,79.59,0,73.48,0,68.6v-.43C0,61.32,4.91,55.75,11.43,52.08Zm3.09,5.49c-5.62,3.16-8.23,7-8.23,10.6,0,5.49.17,8.58,3,10.91,1.55,1.27,4.15,2.51,8.6,3.41a98.36,98.36,0,0,0,18.78,1.42,98.43,98.43,0,0,0,18.78-1.42c4.45-.9,7-2.14,8.6-3.41,2.87-2.33,3-5.42,3-10.91,0-3.57-2.61-7.44-8.23-10.6s-13.36-5.13-22.19-5.13S20,54.46,14.52,57.57Z"/><path class="cls-1" d="M64.78,26a10,10,0,0,1,9.69,1,10,10,0,0,1,9.69-1,10.31,10.31,0,0,1,6,9.45,13.38,13.38,0,0,1-3.82,9.24,37.65,37.65,0,0,1-5.22,4.45l-1,.72h0a20.87,20.87,0,0,1-2.28,1.57,7,7,0,0,1-3.44,1,7.11,7.11,0,0,1-3.45-1,21.89,21.89,0,0,1-2.28-1.57h0l-1-.72a36.52,36.52,0,0,1-5.22-4.45,13.34,13.34,0,0,1-3.82-9.24A10.29,10.29,0,0,1,64.78,26ZM65,35.45a4,4,0,0,1,2.29-3.7c1.12-.49,2.9-.54,4.92,1.49a3.16,3.16,0,0,0,4.46,0c2-2,3.79-2,4.91-1.49a4,4,0,0,1,2.3,3.7,7.1,7.1,0,0,1-2.17,5A29.26,29.26,0,0,1,77.59,44c-.39.29-.8.59-1.21.91A13.58,13.58,0,0,1,74.81,46a2,2,0,0,1-.34.17,1.69,1.69,0,0,1-.35-.17,14.51,14.51,0,0,1-1.57-1.1L71.35,44a29.93,29.93,0,0,1-4.16-3.51A7.13,7.13,0,0,1,65,35.45Z"/></g></g></svg>