<svg xmlns="http://www.w3.org/2000/svg" viewBox="0 0 92.82 92.82"><defs><style>.cls-1,.cls-2{fill:#999;}.cls-2{fill-rule:evenodd;}</style></defs><g id="Capa_2" data-name="Capa 2"><g id="Capa_1-2" data-name="Capa 1"><path class="cls-1" d="M33.46,63.68a4.32,4.32,0,1,1-4.32-4.32A4.31,4.31,0,0,1,33.46,63.68Z"/><path class="cls-1" d="M50.73,63.68a4.32,4.32,0,1,1-4.32-4.32A4.31,4.31,0,0,1,50.73,63.68Z"/><path class="cls-1" d="M63.68,68a4.32,4.32,0,1,0-4.32-4.32A4.31,4.31,0,0,0,63.68,68Z"/><path class="cls-2" d="M17.27,29.14v5.63c-1,.07-1.9.16-2.77.27-3.89.52-7.16,1.64-9.76,4.24S1,45.15.5,49A119,119,0,0,0,0,63.44v.48A119.3,119.3,0,0,0,.5,78.33c.53,3.88,1.64,7.15,4.24,9.75s5.87,3.72,9.76,4.24a119.13,119.13,0,0,0,14.41.5h35a119.3,119.3,0,0,0,14.41-.5c3.88-.52,7.15-1.64,9.75-4.24s3.72-5.87,4.24-9.75a119.3,119.3,0,0,0,.5-14.41v-.48a119,119,0,0,0-.5-14.4c-.52-3.89-1.64-7.16-4.24-9.76S82.21,35.56,78.33,35c-.87-.11-1.8-.2-2.78-.27V29.14a29.14,29.14,0,0,0-58.28,0ZM46.41,6.48A22.65,22.65,0,0,0,23.75,29.14v5.41H69.08V29.14A22.66,22.66,0,0,0,46.41,6.48Zm-31,35c-3.17.43-4.84,1.21-6,2.4s-2,2.87-2.4,6a115.84,115.84,0,0,0-.44,13.78,115.84,115.84,0,0,0,.44,13.78c.43,3.17,1.21,4.85,2.4,6s2.87,2,6,2.4a115.48,115.48,0,0,0,13.78.45H63.68a115.39,115.39,0,0,0,13.78-.45c3.17-.42,4.85-1.2,6-2.4s2-2.87,2.4-6a115.39,115.39,0,0,0,.45-13.78A115.39,115.39,0,0,0,85.9,49.9c-.42-3.17-1.2-4.84-2.4-6s-2.87-2-6-2.4A115.84,115.84,0,0,0,63.68,41H29.14A115.93,115.93,0,0,0,15.36,41.46Z"/></g></g></svg>