<svg xmlns="http://www.w3.org/2000/svg" viewBox="0 0 122.89 88.59"><defs><style>.cls-1{fill:#999;fill-rule:evenodd;}</style></defs><g id="Capa_2" data-name="Capa 2"><g id="Capa_1-2" data-name="Capa 1"><path class="cls-1" d="M96.94,9c-4.47-.45-10.23-.46-18.35-.46H44.3c-8.12,0-13.88,0-18.35.46s-7.06,1.3-9.12,2.67a18.69,18.69,0,0,0-5.13,5.13C10.33,18.89,9.48,21.55,9,26S8.57,36.18,8.57,44.3s0,13.88.46,18.35,1.3,7.05,2.67,9.11a18.69,18.69,0,0,0,5.13,5.13c2.06,1.38,4.72,2.22,9.12,2.67S36.18,80,44.3,80H78.59c8.12,0,13.88,0,18.35-.46s7.06-1.29,9.12-2.67a18.52,18.52,0,0,0,5.12-5.13c1.38-2.06,2.23-4.72,2.67-9.11s.46-10.24.46-18.35,0-13.88-.46-18.35-1.29-7.06-2.67-9.12a18.52,18.52,0,0,0-5.12-5.13C104,10.33,101.34,9.48,96.94,9ZM97.81.5c5.07.52,9.31,1.6,13,4.08a27,27,0,0,1,7.49,7.49c2.48,3.7,3.56,7.94,4.07,13s.51,11.15.51,19v.47c0,7.83,0,14-.51,19s-1.59,9.31-4.07,13A27.11,27.11,0,0,1,110.82,84c-3.7,2.47-7.94,3.55-13,4.07s-11.16.5-19,.5H44.06c-7.83,0-14,0-19-.5s-9.31-1.6-13-4.07a27.11,27.11,0,0,1-7.49-7.49C2.1,72.82,1,68.59.5,63.51S0,52.36,0,44.53v-.47c0-7.83,0-14,.5-19s1.6-9.31,4.08-13a27,27,0,0,1,7.49-7.49C15.77,2.1,20,1,25.08.5s11.15-.5,19-.5H78.83C86.65,0,92.86,0,97.81.5ZM24.29,22.86a4.29,4.29,0,0,1,4.29,4.29V61.44a4.29,4.29,0,1,1-8.58,0V27.15A4.29,4.29,0,0,1,24.29,22.86Zm37.15,8.58A12.86,12.86,0,1,0,74.3,44.3,12.86,12.86,0,0,0,61.44,31.44ZM40,44.3A21.44,21.44,0,1,1,61.44,65.73,21.44,21.44,0,0,1,40,44.3ZM98.6,22.86a4.29,4.29,0,0,1,4.28,4.29V61.44a4.29,4.29,0,1,1-8.57,0V27.15A4.29,4.29,0,0,1,98.6,22.86Z"/></g></g></svg>