<svg xmlns="http://www.w3.org/2000/svg" viewBox="0 0 98.88 94.28"><defs><style>.cls-1{fill:#999;fill-rule:evenodd;}</style></defs><g id="Capa_2" data-name="Capa 2"><g id="Capa_1-2" data-name="Capa 1"><path class="cls-1" d="M69,6.9v7.77L78.18,22V6.9Zm16.1,20.64V5.75A5.74,5.74,0,0,0,79.33,0H67.83a5.75,5.75,0,0,0-5.75,5.75v3.4l-1.87-1.5a17.25,17.25,0,0,0-21.55,0L1.29,37.55A3.45,3.45,0,0,0,5.6,42.93l3.6-2.87V87.38H3.45a3.45,3.45,0,0,0,0,6.9h92a3.45,3.45,0,0,0,0-6.9H89.68V40.06l3.59,2.87a3.45,3.45,0,1,0,4.31-5.38Zm-2.3,7L55.9,13A10.33,10.33,0,0,0,43,13L16.1,34.54V87.38H32.19V67.61a62.19,62.19,0,0,1,.29-7.81,9.41,9.41,0,0,1,8.93-8.93,64.22,64.22,0,0,1,7.8-.28h.45a64.4,64.4,0,0,1,7.81.28A9.43,9.43,0,0,1,66.4,59.8a64.4,64.4,0,0,1,.28,7.81V87.38h16.1Zm-23,52.84V67.83a59,59,0,0,0-.23-7.11c-.2-1.49-.52-2-.78-2.22s-.74-.59-2.23-.79a59.53,59.53,0,0,0-7.11-.22,59.44,59.44,0,0,0-7.11.22c-1.5.2-2,.52-2.23.79a3.54,3.54,0,0,0-.79,2.22,61.78,61.78,0,0,0-.22,7.11V87.38ZM49.44,27.59a5.75,5.75,0,1,0,5.75,5.75A5.75,5.75,0,0,0,49.44,27.59ZM36.79,33.34A12.65,12.65,0,1,1,49.44,46,12.65,12.65,0,0,1,36.79,33.34Z"/></g></g></svg>