<svg xmlns="http://www.w3.org/2000/svg" viewBox="0 0 96.53 96.35"><defs><style>.cls-1{fill:#999;}</style></defs><g id="Capa_2" data-name="Capa 2"><g id="Capa_1-2" data-name="Capa 1"><path class="cls-1" d="M14.34,96.35h47A14.29,14.29,0,0,0,66,68.54V51.12a2.39,2.39,0,0,0-.3-1.11s0-.08,0-.11l-5.56-9.63,9.61-12.64,17,20.72H74a2.46,2.46,0,0,0-2.45,2.46,2.61,2.61,0,0,0,0,.48c.18.87.33,1.74.5,2.59.36,1.89.73,3.84,1.26,5.75a10.53,10.53,0,0,0,10,7.52A9.71,9.71,0,0,0,85.07,67c1.64-.29,3.24-.65,4.86-1l2.57-.56a3.25,3.25,0,0,0,2.69-3c.21-2,.45-4,.69-6l.63-5.39s0-.09,0-.14a.59.59,0,0,0,0-.14V40.1a12.18,12.18,0,0,0-1-4.79L83.37,6.6A10.78,10.78,0,0,0,65.8,3.16L41.4,27.45H30.17A12.28,12.28,0,0,0,17.9,39.72v8.94H12.8V35.9A6.48,6.48,0,0,0,8,29.65l-3.82-1a2.46,2.46,0,0,0-1.28,4.75l3.81,1a1.54,1.54,0,0,1,1.15,1.5V49.74A12.29,12.29,0,0,0,.61,60.94V77.82c0,.07,0,.14,0,.21A14,14,0,0,0,0,82,14.34,14.34,0,0,0,14.34,96.35ZM70.77,82a9.43,9.43,0,0,1-9.42,9.41h-47a9.42,9.42,0,0,1,0-18.83h47A9.44,9.44,0,0,1,70.77,82Zm-48-28.47H61.1V67.7H22.81Zm19.6-21.21h7a.82.82,0,0,1,.71.41l4.91,8.52v0l4.24,7.35H38.16V32.36ZM91,55.87c-.2,1.66-.41,3.33-.59,5l-1.55.33c-1.55.32-3.1.68-4.67,1a5.56,5.56,0,0,1-6.12-3.86c-.44-1.62-.77-3.29-1.1-5.06H91.32ZM69.26,6.63a5.89,5.89,0,0,1,8.33,0,6,6,0,0,1,1.27,1.88L91,37.22a7.48,7.48,0,0,1,.58,2.88v6.51l-28-34.3Zm-9.19,9.16,6.48,7.92L57.47,35.65l-3.08-5.34a5.72,5.72,0,0,0-5-2.86H48.36ZM30.17,32.36h3.08v16.3H22.81V39.72A7.35,7.35,0,0,1,30.17,32.36ZM12.88,53.57h5V67.7H14.34a14.15,14.15,0,0,0-8.82,3.13V60.94A7.36,7.36,0,0,1,12.88,53.57Z"/><circle class="cls-1" cx="20.04" cy="82.03" r="3.5"/><circle class="cls-1" cx="31.85" cy="82.03" r="3.5"/><circle class="cls-1" cx="43.65" cy="82.03" r="3.5"/><circle class="cls-1" cx="55.46" cy="82.03" r="3.5"/></g></g></svg>