<svg xmlns="http://www.w3.org/2000/svg" viewBox="0 0 113.45 92.34"><defs><style>.cls-1{fill:#999;fill-rule:evenodd;}</style></defs><g id="Capa_2" data-name="Capa 2"><g id="Capa_1-2" data-name="Capa 1"><path class="cls-1" d="M56.72,26.38A19.79,19.79,0,1,0,76.51,46.17,19.78,19.78,0,0,0,56.72,26.38ZM44.85,46.17A11.88,11.88,0,1,1,56.72,58,11.87,11.87,0,0,1,44.85,46.17Z"/><path class="cls-1" d="M56.72,0C32.9,0,16.86,14.27,7.55,26.37l-.17.21A40.75,40.75,0,0,0,2,34.82,27,27,0,0,0,0,46.17,27,27,0,0,0,2,57.52a40.75,40.75,0,0,0,5.36,8.24l.17.21c9.31,12.1,25.35,26.37,49.17,26.37S96.59,78.07,105.9,66l.16-.21a40.8,40.8,0,0,0,5.37-8.24,27,27,0,0,0,2-11.35,27,27,0,0,0-2-11.35,40.8,40.8,0,0,0-5.37-8.24l-.16-.21C96.59,14.27,80.54,0,56.72,0ZM13.82,31.19C22.42,20,36.41,7.91,56.72,7.91S91,20,99.63,31.19c2.31,3,3.67,4.81,4.56,6.82s1.34,4.2,1.34,8.16-.51,6.27-1.34,8.15-2.25,3.82-4.56,6.83C91,72.32,77,84.42,56.72,84.42s-34.3-12.1-42.9-23.27c-2.31-3-3.67-4.81-4.56-6.83a19.27,19.27,0,0,1-1.35-8.15A19.35,19.35,0,0,1,9.26,38C10.15,36,11.51,34.2,13.82,31.19Z"/></g></g></svg>