<svg xmlns="http://www.w3.org/2000/svg" viewBox="0 0 83.73 92.32"><defs><style>.cls-1{fill:#999;fill-rule:evenodd;}</style></defs><g id="Capa_2" data-name="Capa 2"><g id="Capa_1-2" data-name="Capa 1"><path class="cls-1" d="M21.52,8.63A9.67,9.67,0,0,1,31.13,0H52.6a9.67,9.67,0,0,1,9.61,8.63,55.48,55.48,0,0,1,8.52.68,15,15,0,0,1,8.28,4c2.59,2.59,3.7,5.84,4.22,9.71a117.8,117.8,0,0,1,.5,14.33V63.57a118,118,0,0,1-.5,14.33C82.71,81.76,81.6,85,79,87.6s-5.84,3.7-9.7,4.22a117.89,117.89,0,0,1-14.33.5H28.75a117.89,117.89,0,0,1-14.33-.5c-3.87-.52-7.12-1.63-9.7-4.22S1,81.76.5,77.9A118,118,0,0,1,0,63.57V37.34A117.8,117.8,0,0,1,.5,23C1,19.14,2.13,15.89,4.72,13.3a15,15,0,0,1,8.27-4A55.73,55.73,0,0,1,21.52,8.63Zm0,6.45a47.44,47.44,0,0,0-7.37.57,8.56,8.56,0,0,0-4.89,2.21c-1.19,1.19-2,2.85-2.39,6a116.71,116.71,0,0,0-.44,13.7V63.33A116.81,116.81,0,0,0,6.88,77c.43,3.15,1.2,4.82,2.39,6s2.86,2,6,2.38a114.08,114.08,0,0,0,13.7.45H54.75a114.08,114.08,0,0,0,13.7-.45c3.15-.42,4.82-1.19,6-2.38s2-2.86,2.39-6a116.81,116.81,0,0,0,.44-13.71V37.57a116.71,116.71,0,0,0-.44-13.7c-.43-3.16-1.2-4.82-2.39-6a8.56,8.56,0,0,0-4.89-2.21,47.44,47.44,0,0,0-7.37-.57,9.67,9.67,0,0,1-9.6,8.54H31.13A9.67,9.67,0,0,1,21.53,15.08Zm9.6-8.64a3.22,3.22,0,0,0-3.22,3.22V14a3.23,3.23,0,0,0,3.22,3.23H52.6A3.23,3.23,0,0,0,55.82,14V9.66A3.22,3.22,0,0,0,52.6,6.44ZM17.18,39.72A3.22,3.22,0,0,1,20.4,36.5h2.14a3.22,3.22,0,1,1,0,6.44H20.4A3.22,3.22,0,0,1,17.18,39.72Zm15,0a3.22,3.22,0,0,1,3.22-3.22H63.33a3.22,3.22,0,0,1,0,6.44H35.42A3.22,3.22,0,0,1,32.2,39.72Zm-15,15a3.22,3.22,0,0,1,3.22-3.22h2.14a3.22,3.22,0,1,1,0,6.44H20.4A3.22,3.22,0,0,1,17.18,54.75Zm15,0a3.22,3.22,0,0,1,3.22-3.22H63.33a3.22,3.22,0,0,1,0,6.44H35.42A3.23,3.23,0,0,1,32.2,54.75Zm-15,15a3.22,3.22,0,0,1,3.22-3.22h2.14a3.22,3.22,0,1,1,0,6.44H20.4A3.22,3.22,0,0,1,17.18,69.77Zm15,0a3.23,3.23,0,0,1,3.22-3.22H63.33a3.22,3.22,0,0,1,0,6.44H35.42A3.22,3.22,0,0,1,32.2,69.77Z"/></g></g></svg>