<svg xmlns="http://www.w3.org/2000/svg" viewBox="0 0 90.82 90.81"><defs><style>.cls-1{fill:#999;stroke:#999;stroke-miterlimit:10;stroke-width:2px;}</style></defs><g id="Capa_2" data-name="Capa 2"><g id="Capa_1-2" data-name="Capa 1"><path class="cls-1" d="M86.45,32.69,76.21,31.18a35.17,35.17,0,0,0-3.39-6l3.9-10A4,4,0,0,0,75,10.31L60.29,1.57a3.93,3.93,0,0,0-5.16,1l-6.38,8.39a28.7,28.7,0,0,0-6.68,0l-6.39-8.4a3.94,3.94,0,0,0-5.13-1L15.86,10.28a4.12,4.12,0,0,0-1.76,5l3.89,10a34.43,34.43,0,0,0-3.38,6L4.4,32.68a4,4,0,0,0-3.4,4v17.5a4,4,0,0,0,3.37,4l10.24,1.51a35.17,35.17,0,0,0,3.39,6l-3.9,10a4,4,0,0,0,1.72,4.92l14.77,8.78a4.07,4.07,0,0,0,2,.52,3.9,3.9,0,0,0,3.12-1.54l6.38-8.39a35.49,35.49,0,0,0,6.68,0l6.39,8.4a4,4,0,0,0,5.14,1l4.25-2.53a1.85,1.85,0,1,0-1.89-3.18L58.08,86l-7-9.23a1.87,1.87,0,0,0-1.71-.72,35.7,35.7,0,0,1-7.87,0,1.88,1.88,0,0,0-1.71.72l-7.33,9.29L17.68,77.31a.32.32,0,0,1-.12-.38L21.82,66a1.85,1.85,0,0,0-.23-1.76,32,32,0,0,1-3.94-7,1.86,1.86,0,0,0-1.46-1.15L4.92,54.47s-.2-.31-.21-.31V36.66l.21-.32,11.27-1.66a1.86,1.86,0,0,0,1.46-1.15,30.55,30.55,0,0,1,3.93-7,1.86,1.86,0,0,0,.24-1.78L17.58,14a.43.43,0,0,1,.14-.47l15-8.69,7,9.23a1.86,1.86,0,0,0,1.71.71,26.55,26.55,0,0,1,7.86,0A1.86,1.86,0,0,0,51.06,14l7.33-9.29,14.76,8.78a.31.31,0,0,1,.12.38L69,24.78a1.89,1.89,0,0,0,.23,1.77,31.38,31.38,0,0,1,4,7,1.87,1.87,0,0,0,1.45,1.15l11.28,1.66s.19.31.2.31v17.5l-.2.31-7.24,1.07a1.85,1.85,0,0,0,.54,3.66l7.2-1.06a4,4,0,0,0,3.4-4V36.66A4,4,0,0,0,86.45,32.69Z"/><path class="cls-1" d="M67,53.25a9.74,9.74,0,0,1-3.08-7.19c.19-4.57-1.72-8.93-5.84-13.33A17.66,17.66,0,0,0,45.17,26.9a18.24,18.24,0,0,0-11.33,4.16,1.85,1.85,0,0,0,.21,3l11.31,6.78a10.08,10.08,0,0,1-5.42,8L29.81,42.76a2,2,0,0,0-1.91,0,1.85,1.85,0,0,0-1,1.51,18.3,18.3,0,0,0,5,13.81A18.58,18.58,0,0,0,45.41,63.9a17,17,0,0,0,4.23-.56L73.26,87a9.61,9.61,0,0,0,6.86,2.85,9.72,9.72,0,0,0,9.7-9.7A9.61,9.61,0,0,0,87,73.25ZM80.12,86.11h0a6,6,0,0,1-4.24-1.76L51.49,60a1.9,1.9,0,0,0-1.84-.47,14.3,14.3,0,0,1-4.23.7A14.81,14.81,0,0,1,30.78,47.66l8.13,4.88a1.9,1.9,0,0,0,1.78.07l.78-.39a13.77,13.77,0,0,0,7.64-12.37,1.86,1.86,0,0,0-.9-1.59L38.44,32.4a14.43,14.43,0,0,1,6.78-1.8,14,14,0,0,1,10.14,4.66c3.46,3.69,5,7.07,4.84,10.64a13.46,13.46,0,0,0,4.16,10l20,20a6,6,0,0,1-4.24,10.24Z"/></g></g></svg>