<svg xmlns="http://www.w3.org/2000/svg" viewBox="0 0 87.54 92.76"><defs><style>.cls-1{fill:#999;fill-rule:evenodd;}</style></defs><g id="Capa_2" data-name="Capa 2"><g id="Capa_1-2" data-name="Capa 1"><path class="cls-1" d="M57.11,0H30.43C23.66,0,18.23,0,14,.59s-8,1.94-10.63,5S0,12.49,0,16.88s.84,9.61,1.85,16.31l5.24,35A110.52,110.52,0,0,0,9.38,80.58a16,16,0,0,0,4.78,8.26A16,16,0,0,0,23,92.34a109.29,109.29,0,0,0,12.61.42H51.89a109.29,109.29,0,0,0,12.61-.42,16,16,0,0,0,8.88-3.5,16,16,0,0,0,4.78-8.26,110.52,110.52,0,0,0,2.29-12.41l5.24-35c1-6.7,1.81-12.07,1.85-16.31s-.73-8.16-3.4-11.26-6.28-4.41-10.62-5S63.88,0,57.11,0ZM8.3,9.84c1.21-1.4,3-2.33,6.63-2.84s8.67-.53,15.76-.53H56.86c7.08,0,12,0,15.75.53S78,8.44,79.24,9.84s1.86,3.34,1.83,7c0,.15,0,.29,0,.44H6.48c0-.15,0-.29,0-.44C6.44,13.18,7.09,11.25,8.3,9.84Zm6.09,13.89H7c.23,1.76.51,3.71.83,5.89l.32.32ZM9.47,40.39l2.67,17.78,7.37-7.75Zm4.77,31.7c.07.43.14.85.21,1.25h.84Zm7.94,7.73H71.63a8.7,8.7,0,0,1-2.47,4.12c-1.16,1-2.69,1.63-5.47,2a107.22,107.22,0,0,1-12,.37H35.86a107.22,107.22,0,0,1-12-.37c-2.78-.35-4.31-1-5.47-2a8.7,8.7,0,0,1-2.47-4.12Zm37.61-6.48H70.47l-5.55-5.55ZM74,67.69c0-.23.07-.46.11-.69l1.63-10.91L69.31,63Zm3.69-24.6,1.6-10.61c.4-2.72.76-5.13,1-7.28l-10,10Zm-5-19.36H59.79L66,30.41Zm-27.77,0H30l7.62,7.62ZM42.43,73.34H32.17l5.13-5.13ZM24,45.73,12.75,34.52l9.45-9.45,11,11Zm4.58,4.57,9.21-9.68,9,9L37.3,59.06ZM41.87,63.64l9.45-9.45,9,9L51.27,73Zm14-14,8.83,8.83,9.15-9.91-8.11-8.79ZM51.32,45l10-10-9-9.76L42.2,35.92ZM24.08,55l8.64,8.64L23.4,73l-7.66-9.18Z"/></g></g></svg>