<svg xmlns="http://www.w3.org/2000/svg" viewBox="0 0 93.53 93.53"><defs><style>.cls-1,.cls-2{fill:#999;}.cls-2{fill-rule:evenodd;}</style></defs><g id="Capa_2" data-name="Capa 2"><g id="Capa_1-2" data-name="Capa 1"><path class="cls-1" d="M16.88,17.6c-.57.79-.57,1.91-.57,4.15s0,3.37.57,4.16a2.9,2.9,0,0,0,.72.72c.79.56,1.91.56,4.15.56s3.37,0,4.16-.56a3.08,3.08,0,0,0,.72-.72c.56-.79.56-1.92.56-4.16s0-3.36-.56-4.15a2.9,2.9,0,0,0-.72-.72c-.79-.57-1.92-.57-4.16-.57s-3.36,0-4.15.57A2.74,2.74,0,0,0,16.88,17.6Z"/><path class="cls-2" d="M32.43.17a12.2,12.2,0,0,1,5.36,1.59,12,12,0,0,1,4,4,12.11,12.11,0,0,1,1.59,5.37c.17,1.84.17,4.1.17,6.82v5.17a81.56,81.56,0,0,1-.34,9.75A11.88,11.88,0,0,1,40,40a11.88,11.88,0,0,1-7.18,3.16,81.56,81.56,0,0,1-9.75.34H17.9c-2.72,0-5,0-6.82-.17a12.11,12.11,0,0,1-5.37-1.59,12,12,0,0,1-3.95-4A12.2,12.2,0,0,1,.17,32.43C0,30.59,0,28.32,0,25.6v-.31c0-4.14,0-7.47.26-10.15A16.69,16.69,0,0,1,2.4,7.79,16.34,16.34,0,0,1,7.79,2.4,16.69,16.69,0,0,1,15.14.26C17.82,0,21.15,0,25.29,0h.31C28.32,0,30.59,0,32.43.17Zm-.62,6.5c-1.49-.14-3.45-.14-6.36-.14-4.34,0-7.36,0-9.7.22A10.21,10.21,0,0,0,11.2,8,9.78,9.78,0,0,0,8,11.2a10.21,10.21,0,0,0-1.22,4.55c-.22,2.34-.22,5.36-.22,9.7,0,2.91,0,4.87.14,6.36a5.76,5.76,0,0,0,.66,2.57,5.5,5.5,0,0,0,1.79,1.8,6,6,0,0,0,2.57.65c1.5.14,3.45.15,6.36.15h4.79A77.68,77.68,0,0,0,32,36.69c2-.27,2.87-.74,3.44-1.3s1-1.43,1.3-3.44A77.68,77.68,0,0,0,37,22.84V18.05c0-2.91,0-4.86-.15-6.36a6,6,0,0,0-.65-2.57,5.5,5.5,0,0,0-1.8-1.79A5.76,5.76,0,0,0,31.81,6.67Z"/><path class="cls-1" d="M66.9,17.6c-.56.79-.56,1.91-.56,4.15s0,3.37.56,4.16a3.12,3.12,0,0,0,.73.72c.79.56,1.91.56,4.15.56s3.36,0,4.16-.56a3.08,3.08,0,0,0,.72-.72c.56-.79.56-1.92.56-4.16s0-3.36-.56-4.15a2.9,2.9,0,0,0-.72-.72c-.8-.57-1.92-.57-4.16-.57s-3.36,0-4.15.57A2.94,2.94,0,0,0,66.9,17.6Z"/><path class="cls-2" d="M67.93,0h.32c4.13,0,7.46,0,10.15.26A16.68,16.68,0,0,1,85.74,2.4a16.34,16.34,0,0,1,5.39,5.39,16.7,16.7,0,0,1,2.15,7.35c.25,2.68.25,6,.25,10.15v.31c0,2.72,0,5-.17,6.83a12.2,12.2,0,0,1-1.59,5.36,11.36,11.36,0,0,1-9.31,5.54c-1.84.17-4.11.17-6.83.17H70.47a81.66,81.66,0,0,1-9.76-.34A11.88,11.88,0,0,1,53.53,40a11.82,11.82,0,0,1-3.15-7.18A79.25,79.25,0,0,1,50,23.07V17.9c0-2.72,0-5,.17-6.82a12.24,12.24,0,0,1,1.59-5.37,12,12,0,0,1,4-3.95A12.24,12.24,0,0,1,61.1.17C63,0,65.21,0,67.93,0ZM61.72,6.67a5.81,5.81,0,0,0-2.57.66,5.38,5.38,0,0,0-1.79,1.79,5.81,5.81,0,0,0-.66,2.57c-.14,1.5-.15,3.45-.15,6.36v4.79A77.68,77.68,0,0,0,56.84,32c.27,2,.74,2.87,1.31,3.44s1.42,1,3.43,1.3a77.68,77.68,0,0,0,9.11.29h4.79c2.91,0,4.86,0,6.36-.15a6,6,0,0,0,2.57-.65,5.53,5.53,0,0,0,1.8-1.8,6,6,0,0,0,.65-2.57c.14-1.49.15-3.45.15-6.36,0-4.34,0-7.36-.23-9.7a10.21,10.21,0,0,0-1.22-4.55A9.69,9.69,0,0,0,82.33,8a10.21,10.21,0,0,0-4.55-1.22c-2.34-.22-5.36-.22-9.7-.22C65.17,6.53,63.22,6.53,61.72,6.67Z"/><path class="cls-1" d="M16.31,71.78c0-2.24,0-3.36.57-4.15a2.94,2.94,0,0,1,.72-.73c.79-.56,1.91-.56,4.15-.56s3.37,0,4.16.56a3.12,3.12,0,0,1,.72.73c.56.79.56,1.91.56,4.15s0,3.36-.56,4.16a3.08,3.08,0,0,1-.72.72c-.79.56-1.92.56-4.16.56s-3.36,0-4.15-.56a2.9,2.9,0,0,1-.72-.72C16.31,75.14,16.31,74,16.31,71.78Z"/><path class="cls-2" d="M32.82,50.38A11.82,11.82,0,0,1,40,53.53a11.88,11.88,0,0,1,3.16,7.18,81.66,81.66,0,0,1,.34,9.76v5.16c0,2.72,0,5-.17,6.83a11.36,11.36,0,0,1-5.54,9.31,12.2,12.2,0,0,1-5.36,1.59c-1.84.17-4.11.17-6.83.17h-.31c-4.14,0-7.47,0-10.15-.25a16.7,16.7,0,0,1-7.35-2.15A16.34,16.34,0,0,1,2.4,85.74,16.68,16.68,0,0,1,.26,78.4C0,75.71,0,72.38,0,68.25v-.32c0-2.72,0-5,.17-6.83a12.24,12.24,0,0,1,1.59-5.36,12,12,0,0,1,4-4,12.24,12.24,0,0,1,5.37-1.59C12.92,50,15.18,50,17.9,50h5.17A79.25,79.25,0,0,1,32.82,50.38ZM32,56.84a77.68,77.68,0,0,0-9.11-.29H18.05c-2.91,0-4.86,0-6.36.15a5.81,5.81,0,0,0-2.57.66,5.38,5.38,0,0,0-1.79,1.79,5.81,5.81,0,0,0-.66,2.57c-.14,1.5-.14,3.45-.14,6.36,0,4.34,0,7.36.22,9.7A10.21,10.21,0,0,0,8,82.33a9.69,9.69,0,0,0,3.23,3.23,10.21,10.21,0,0,0,4.55,1.22c2.34.22,5.36.23,9.7.23,2.91,0,4.87,0,6.36-.15a6,6,0,0,0,2.57-.65,5.53,5.53,0,0,0,1.8-1.8,6,6,0,0,0,.65-2.57c.14-1.5.15-3.45.15-6.36V70.69a77.68,77.68,0,0,0-.29-9.11c-.27-2-.74-2.87-1.3-3.43S34,57.11,32,56.84Z"/><path class="cls-1" d="M68.35,50h8.87v6.52h-8.7c-3.12,0-5.22,0-6.82.17a5.9,5.9,0,0,0-2.73.75,5.63,5.63,0,0,0-1.5,1.5,5.9,5.9,0,0,0-.75,2.73c-.16,1.6-.17,3.7-.17,6.82H50v-.17c0-2.91,0-5.34.2-7.31a12,12,0,0,1,1.82-5.69,11.78,11.78,0,0,1,3.3-3.3A12,12,0,0,1,61,50.23C63,50,65.44,50,68.35,50Z"/><path class="cls-1" d="M50,90.27v-13h6.52v13a3.26,3.26,0,1,1-6.52,0Z"/><path class="cls-1" d="M93.53,53.29a3.26,3.26,0,0,0-6.52,0V68.52h6.52Z"/><path class="cls-1" d="M87,77.22c0,2.07,0,3.46-.08,4.54a6,6,0,0,1-.34,1.89,5.43,5.43,0,0,1-2.94,2.94,6,6,0,0,1-1.89.34c-1.08.08-2.47.08-4.54.08h-8.7v6.52h8.81c1.93,0,3.55,0,4.87-.09a12.06,12.06,0,0,0,4-.82,11.93,11.93,0,0,0,6.47-6.47,12.06,12.06,0,0,0,.82-4c.09-1.32.09-2.94.09-4.87v-.11Z"/><path class="cls-1" d="M64.9,66.1c-.73,1.1-.73,2.63-.73,5.68s0,4.58.73,5.68a4.42,4.42,0,0,0,1.2,1.2c1.1.73,2.63.73,5.68.73s4.58,0,5.68-.73a4.29,4.29,0,0,0,1.2-1.2c.73-1.1.73-2.62.73-5.68s0-4.58-.73-5.68a4.42,4.42,0,0,0-1.2-1.2c-1.1-.73-2.62-.73-5.68-.73s-4.58,0-5.68.73A4.57,4.57,0,0,0,64.9,66.1Z"/></g></g></svg>