<svg xmlns="http://www.w3.org/2000/svg" viewBox="0 0 88.23 92.54"><defs><style>.cls-1{fill:#999;fill-rule:evenodd;}</style></defs><g id="Capa_2" data-name="Capa 2"><g id="Capa_1-2" data-name="Capa 1"><path class="cls-1" d="M37.42,0h9.09c7.91,0,14.18,0,19.08.66S74.72,2.77,77.94,6a3.22,3.22,0,0,1-4.56,4.56c-1.82-1.82-4.32-2.91-8.65-3.49s-10.25-.6-18.46-.6H37.66c-8.21,0-14,0-18.46.6s-6.83,1.67-8.65,3.49S7.64,14.87,7.06,19.2s-.6,10.25-.6,18.46V54.88c0,8.2,0,14,.6,18.46S8.73,80.16,10.55,82s4.32,2.91,8.65,3.49,10.25.6,18.46.6h8.61c8.21,0,14,0,18.46-.6s6.83-1.67,8.65-3.49c3-3,3.9-7.65,4.06-18.55a3.23,3.23,0,1,1,6.45.09c-.15,10.45-.83,17.9-6,23-3.22,3.22-7.3,4.65-12.35,5.33s-11.17.66-19.08.66H37.42c-7.91,0-14.18,0-19.08-.66C13.29,91.2,9.21,89.77,6,86.55S1.34,79.24.66,74.2,0,63,0,55.12V37.42c0-7.91,0-14.18.66-19.08C1.34,13.29,2.77,9.21,6,6S13.29,1.34,18.34.66C23.24,0,29.51,0,37.42,0ZM68.28,24.94A11.69,11.69,0,0,1,84.81,41.48L64.34,62a29.66,29.66,0,0,1-2.71,2.52,16.73,16.73,0,0,1-3.2,2A31.27,31.27,0,0,1,55,67.75l-9,3a5.51,5.51,0,0,1-7-7L42,55,42,54.8a30,30,0,0,1,1.29-3.47,18.23,18.23,0,0,1,2-3.21,32.9,32.9,0,0,1,2.53-2.71l.13-.13Zm12,4.57a5.24,5.24,0,0,0-7.4,0l-.78.78c0,.15.09.3.15.46A11.18,11.18,0,0,0,79,37.55l.46.15.78-.79A5.22,5.22,0,0,0,80.24,29.51ZM74.53,42.63a17.78,17.78,0,0,1-7.4-7.41L52.51,49.84a29.06,29.06,0,0,0-2.14,2.25,11.57,11.57,0,0,0-1.24,2A27.33,27.33,0,0,0,48.07,57l-1.72,5.17,1.22,1.21,5.17-1.72a26.82,26.82,0,0,0,2.91-1.06,10.66,10.66,0,0,0,2-1.24,26.42,26.42,0,0,0,2.25-2.13Zm-53-9.27a3.23,3.23,0,0,1,3.23-3.23h28a3.23,3.23,0,0,1,0,6.45h-28A3.23,3.23,0,0,1,21.52,33.36Zm0,17.21a3.23,3.23,0,0,1,3.23-3.22H35.51a3.23,3.23,0,1,1,0,6.45H24.75A3.23,3.23,0,0,1,21.52,50.57Zm0,17.22a3.23,3.23,0,0,1,3.23-3.23H31.2a3.23,3.23,0,1,1,0,6.46H24.75A3.23,3.23,0,0,1,21.52,67.79Z"/></g></g></svg>