<svg xmlns="http://www.w3.org/2000/svg" viewBox="0 0 93.96 94.54"><defs><style>.cls-1,.cls-2{fill:#999;stroke:#999;stroke-miterlimit:10;stroke-width:2px;}.cls-1{fill-rule:evenodd;}</style></defs><g id="Capa_2" data-name="Capa 2"><g id="Capa_1-2" data-name="Capa 1"><path class="cls-1" d="M11.66,40.57a6.3,6.3,0,0,0-6.31,6.31V68.23A7.6,7.6,0,0,0,9.8,75.15L35.68,86.94a25,25,0,0,0,22.81-1.07L86.57,69.75a4,4,0,0,0-2.89-7.31l-28.4,6.7a9.36,9.36,0,0,1-.58,1,9.48,9.48,0,0,1-12.33,3.23L20.14,61.8a2.17,2.17,0,1,1,2-3.85L44.38,69.53A5.14,5.14,0,0,0,50,61L33.38,47.16a28.5,28.5,0,0,0-18.23-6.59ZM56.23,64.45a9.49,9.49,0,0,0-3.41-6.77L36.16,43.82a32.84,32.84,0,0,0-21-7.6H11.66A10.66,10.66,0,0,0,1,46.88V68.23A12,12,0,0,0,8,79.11L33.88,90.9a29.33,29.33,0,0,0,26.77-1.26L88.74,73.53a8.33,8.33,0,0,0-6.06-15.32Z"/><path class="cls-2" d="M83.35,42a26.68,26.68,0,0,0,.25-3.71,27.58,27.58,0,0,0-.26-3.78A4.69,4.69,0,0,1,85,30.25l3.33-2.81a.91.91,0,0,0,.2-1.15l-5.22-9.08a.88.88,0,0,0-1.07-.39l-4.13,1.5a4.68,4.68,0,0,1-4.51-.73,26.11,26.11,0,0,0-6.44-3.72,4.69,4.69,0,0,1-2.87-3.54l-.76-4.24a.88.88,0,0,0-.87-.74H52.16a.88.88,0,0,0-.87.74l-.76,4.24a4.69,4.69,0,0,1-2.87,3.54,25.66,25.66,0,0,0-6.44,3.73,4.71,4.71,0,0,1-4.51.72l-4.07-1.48a.89.89,0,0,0-1.07.4l-5.23,9.07a.92.92,0,0,0,.2,1.15l3.28,2.77a4.72,4.72,0,0,1,1.63,4.27,26.21,26.21,0,0,0-.27,3.79A25.59,25.59,0,0,0,31.44,42l-4.31.61a31.12,31.12,0,0,1-.3-4.34,30.53,30.53,0,0,1,.31-4.41.35.35,0,0,0-.12-.32l-3.28-2.77a5.26,5.26,0,0,1-1.17-6.65l5.23-9.07a5.22,5.22,0,0,1,6.32-2.31l4.07,1.47a.32.32,0,0,0,.34-.05A30.81,30.81,0,0,1,46,9.83a.33.33,0,0,0,.21-.26L47,5.33A5.25,5.25,0,0,1,52.16,1H62.62a5.25,5.25,0,0,1,5.16,4.33l.75,4.24a.33.33,0,0,0,.21.26,30.64,30.64,0,0,1,7.51,4.34.33.33,0,0,0,.33.06l4.13-1.5A5.23,5.23,0,0,1,87,15l5.23,9.08a5.26,5.26,0,0,1-1.16,6.64l-3.34,2.81a.35.35,0,0,0-.12.32,30.39,30.39,0,0,1,.31,4.4,30.83,30.83,0,0,1-.3,4.32.35.35,0,0,0,.12.32l3.3,2.78a5.26,5.26,0,0,1,1.16,6.64L87,61.43l-3.76-2.17,5.22-9.08a.91.91,0,0,0-.2-1.15L85,46.25A4.67,4.67,0,0,1,83.35,42Z"/><path class="cls-1" d="M57.42,48a9.68,9.68,0,1,0-9.68-9.67A9.67,9.67,0,0,0,57.42,48Zm14-9.67a14,14,0,1,1-14-14A14,14,0,0,1,71.44,38.29Z"/></g></g></svg>